<svg width="33" height="32" viewBox="0 0 33 32" fill="none" xmlns="http://www.w3.org/2000/svg">
<g clip-path="url(#clip0_86_1590)">
<path fill-rule="evenodd" clip-rule="evenodd" d="M23.1118 0C23.9187 0 24.5728 0.639593 24.5728 1.42857V3.30421C24.5728 4.09319 23.9187 4.73278 23.1118 4.73278C22.3049 4.73278 21.6508 4.09319 21.6508 3.30421V1.42857C21.6508 0.639593 22.3049 0 23.1118 0ZM9.46218 19.9729C12.5976 19.9729 15.1393 17.4876 15.1393 14.4219C15.1393 11.3562 12.5976 8.87088 9.46218 8.87088C6.32677 8.87088 3.785 11.3562 3.785 14.4219C3.785 17.4876 6.32677 19.9729 9.46218 19.9729ZM0 31.0747C0 25.9653 4.23626 21.8232 9.46195 21.8232C14.6876 21.8232 18.9239 25.9653 18.9239 31.0747C18.9239 31.5858 18.5003 32 17.9777 32H0.946195C0.423626 32 0 31.5858 0 31.0747ZM32.0645 5.69769C32.7249 5.24439 32.8846 4.35342 32.421 3.70766C31.9573 3.06192 31.046 2.90592 30.3856 3.35922L28.8157 4.43687C28.1553 4.89019 27.9956 5.78117 28.4592 6.4269C28.923 7.07266 29.8342 7.22866 30.4946 6.77536L32.0645 5.69769ZM13.7981 3.70766C13.3345 4.35342 13.4941 5.24439 14.1545 5.69769L15.7245 6.77536C16.3849 7.22866 17.2962 7.07266 17.7598 6.4269C18.2234 5.78117 18.0638 4.89019 17.4034 4.43687L15.8334 3.35922C15.1729 2.90592 14.2617 3.06192 13.7981 3.70766ZM23.0038 6.49182C25.8866 6.43328 28.3269 8.77915 28.3161 11.5984C28.2925 13.47 27.1452 15.2569 25.4314 16.091V18.6354C25.4277 18.7832 25.3648 18.9237 25.2563 19.027C25.1481 19.1301 25.0027 19.1879 24.8515 19.1878H21.3721C21.2208 19.1879 21.0755 19.1301 20.9672 19.027C20.8588 18.9237 20.7961 18.7832 20.7922 18.6354V16.1346C19.1308 15.3258 17.9969 13.6226 17.9129 11.8097C17.7823 8.9933 20.121 6.55035 23.0038 6.49182Z" fill="#379DE3"/>
</g>
<defs>
<clipPath id="clip0_86_1590">
<rect width="32.7273" height="32" fill="white"/>
</clipPath>
</defs>
</svg>
